<svg width="22" height="20" viewBox="0 0 22 20" fill="none" xmlns="http://www.w3.org/2000/svg">
<path d="M4.33734 6.66084C4.49983 5.02331 5.26529 3.50467 6.48498 2.40002C7.70467 1.29536 9.29147 0.683594 10.937 0.683594C12.5826 0.683594 14.1694 1.29536 15.3891 2.40002C16.6088 3.50467 17.3743 5.02331 17.5368 6.66084L17.8801 10.1011C17.9017 10.3112 17.9113 10.4156 17.9245 10.5189C18.0974 11.9391 18.5854 13.3027 19.3529 14.5101L19.5834 14.8595L20.6169 16.4104C21.5616 17.8268 22.0334 18.5338 21.8269 19.104C21.7869 19.2128 21.7329 19.3137 21.6649 19.4065C21.3048 19.8951 20.4537 19.8951 18.7527 19.8951H3.12135C1.42041 19.8951 0.56934 19.8951 0.209225 19.4065C0.141421 19.3139 0.0872519 19.212 0.048374 19.104C-0.159292 18.5338 0.312458 17.8256 1.25596 16.4104L2.29069 14.8595L2.52116 14.5101C3.28869 13.3027 3.77673 11.9391 3.94962 10.5189C3.96162 10.4156 3.97363 10.3112 3.99403 10.1011L4.33734 6.66084Z" fill="#B4B4B4"/>
</svg>
