<svg width="42" height="43" viewBox="0 0 42 43" fill="none" xmlns="http://www.w3.org/2000/svg">
<path d="M20.999 13.3237C19.4414 13.3237 17.9189 13.7856 16.6239 14.6509C15.3288 15.5162 14.3195 16.7461 13.7234 18.1851C13.1274 19.624 12.9714 21.2074 13.2753 22.735C13.5791 24.2626 14.3292 25.6658 15.4305 26.7672C16.5318 27.8685 17.935 28.6185 19.4626 28.9224C20.9902 29.2262 22.5736 29.0703 24.0126 28.4743C25.4516 27.8782 26.6815 26.8689 27.5468 25.5738C28.4121 24.2788 28.874 22.7562 28.874 21.1987C28.8718 19.1108 28.0414 17.109 26.565 15.6326C25.0887 14.1563 23.0869 13.3259 20.999 13.3237ZM20.999 26.4487C19.9606 26.4487 18.9456 26.1408 18.0822 25.5639C17.2189 24.987 16.546 24.1671 16.1486 23.2078C15.7512 22.2485 15.6473 21.1929 15.8498 20.1745C16.0524 19.1561 16.5524 18.2206 17.2867 17.4864C18.0209 16.7522 18.9563 16.2521 19.9747 16.0496C20.9931 15.847 22.0487 15.951 23.0081 16.3483C23.9674 16.7457 24.7873 17.4186 25.3642 18.282C25.9411 19.1453 26.249 20.1603 26.249 21.1987C26.249 22.5911 25.6958 23.9264 24.7113 24.911C23.7267 25.8956 22.3914 26.4487 20.999 26.4487ZM39.036 17.7878C38.9994 17.603 38.9235 17.4282 38.8134 17.2754C38.7033 17.1225 38.5615 16.9951 38.3978 16.9019L33.5038 14.1128L33.4841 8.59706C33.4835 8.4071 33.4417 8.21953 33.3615 8.04731C33.2814 7.87509 33.1648 7.72232 33.0198 7.59956C31.2446 6.09789 29.2002 4.9471 26.9955 4.20839C26.8218 4.14962 26.6378 4.12787 26.4553 4.14454C26.2727 4.16121 26.0957 4.21594 25.9356 4.30518L20.999 7.06471L16.0574 4.30026C15.8972 4.21051 15.72 4.15538 15.5371 4.13842C15.3543 4.12146 15.1699 4.14306 14.9959 4.20182C12.7928 4.94594 10.7508 6.10112 8.97811 7.60612C8.83335 7.7287 8.71689 7.88121 8.63674 8.05313C8.55658 8.22505 8.51465 8.4123 8.51381 8.60198L8.4892 14.1227L3.59522 16.9117C3.43149 17.005 3.28974 17.1323 3.17962 17.2852C3.0695 17.4381 2.99357 17.6129 2.95702 17.7977C2.50912 20.0484 2.50912 22.3654 2.95702 24.6161C2.99357 24.8009 3.0695 24.9757 3.17962 25.1286C3.28974 25.2815 3.43149 25.4088 3.59522 25.5021L8.4892 28.2911L8.50889 33.8069C8.50949 33.9969 8.55131 34.1844 8.63147 34.3567C8.71163 34.5289 8.82822 34.6816 8.97319 34.8044C10.7485 36.3061 12.7928 37.4569 14.9976 38.1956C15.1712 38.2543 15.3552 38.2761 15.5377 38.2594C15.7203 38.2427 15.8973 38.188 16.0574 38.0988L20.999 35.3327L25.9405 38.0971C26.1361 38.2061 26.3565 38.2626 26.5804 38.2612C26.7237 38.2612 26.8661 38.2379 27.002 38.1923C29.2049 37.4492 31.2469 36.2951 33.0198 34.7913C33.1646 34.6687 33.2811 34.5162 33.3612 34.3443C33.4414 34.1724 33.4833 33.9851 33.4841 33.7954L33.5087 28.2747L38.4027 25.4857C38.5665 25.3924 38.7082 25.2651 38.8183 25.1122C38.9284 24.9593 39.0044 24.7845 39.0409 24.5997C39.4863 22.3508 39.4847 20.0361 39.036 17.7878ZM36.5751 23.5153L31.8878 26.1813C31.6824 26.2981 31.5124 26.4681 31.3956 26.6735C31.3005 26.8375 31.2004 27.0114 31.0987 27.1755C30.9685 27.3824 30.8991 27.6217 30.8985 27.8662L30.8739 33.1572C29.614 34.1466 28.2104 34.9378 26.7116 35.5033L21.9833 32.8685C21.7871 32.7599 21.5662 32.7034 21.3419 32.7044H21.3107C21.1122 32.7044 20.912 32.7044 20.7135 32.7044C20.4787 32.6985 20.2466 32.7552 20.0408 32.8685L15.3093 35.5099C13.8073 34.9487 12.3998 34.1614 11.1355 33.1753L11.1175 27.8925C11.1167 27.6475 11.0473 27.4077 10.9173 27.2001C10.8156 27.036 10.7155 26.872 10.622 26.6981C10.5061 26.4895 10.336 26.3161 10.1298 26.196L5.43764 23.5235C5.19483 21.9875 5.19483 20.423 5.43764 18.8871L10.1167 16.2161C10.3221 16.0993 10.4921 15.9293 10.6089 15.7239C10.704 15.5599 10.8041 15.386 10.9058 15.2219C11.0361 15.015 11.1054 14.7757 11.106 14.5312L11.1306 9.24018C12.3905 8.2508 13.7941 7.45965 15.2929 6.89409L20.0146 9.52893C20.2201 9.64284 20.4524 9.6995 20.6873 9.693C20.8858 9.693 21.0859 9.693 21.2844 9.693C21.5192 9.69886 21.7514 9.64224 21.9571 9.52893L26.6887 6.88753C28.1906 7.44874 29.5981 8.23602 30.8624 9.22214L30.8805 14.5049C30.8813 14.7499 30.9506 14.9897 31.0806 15.1973C31.1823 15.3614 31.2824 15.5254 31.3759 15.6993C31.4919 15.9079 31.6619 16.0813 31.8681 16.2014L36.5603 18.8739C36.8064 20.411 36.8091 21.9773 36.5685 23.5153H36.5751Z" fill="#EBEBEB"/>
</svg>
