<svg width="12" height="14" viewBox="0 0 12 14" fill="none" xmlns="http://www.w3.org/2000/svg">
<path d="M11.9859 2H8.5V0.5C8.5 0.367392 8.44732 0.240215 8.35355 0.146447C8.25979 0.0526784 8.13261 0 8 0H4C3.86739 0 3.74021 0.0526784 3.64645 0.146447C3.55268 0.240215 3.5 0.367392 3.5 0.5V2H0.0140624L0 3.25H1.03125L1.65906 13.0625C1.67495 13.3163 1.7869 13.5544 1.97214 13.7286C2.15738 13.9027 2.402 13.9998 2.65625 14H9.34375C9.59785 14 9.84242 13.9032 10.0277 13.7294C10.2131 13.5555 10.3253 13.3176 10.3416 13.0641L10.9688 3.25H12L11.9859 2ZM2.65625 12L1.97214 4H4.25L4.53125 12H2.65625ZM7 12H5V4H7.125L7 12ZM7.25 2H4.75V1.125C4.75 1.09185 4.76317 1.06005 4.78661 1.03661C4.81005 1.01317 4.84185 1 4.875 1H7.125C7.15815 1 7.18995 1.01317 7.21339 1.03661C7.23683 1.06005 7.25 1.09185 7.25 1.125V2ZM9.34375 12H7.46875L7.75 4H10.0277L9.34375 12Z" fill="#8F8F8F"/>
</svg>
