<svg width="26" height="27" viewBox="0 0 26 27" fill="none" xmlns="http://www.w3.org/2000/svg">
<path d="M14.5898 13.4948C14.5898 13.7822 14.5046 14.0632 14.3449 14.3021C14.1853 14.5411 13.9583 14.7274 13.6928 14.8373C13.4273 14.9473 13.1351 14.9761 12.8532 14.92C12.5713 14.864 12.3124 14.7256 12.1092 14.5223C11.906 14.3191 11.7676 14.0602 11.7115 13.7783C11.6554 13.4964 11.6842 13.2043 11.7942 12.9387C11.9042 12.6732 12.0904 12.4463 12.3294 12.2866C12.5684 12.1269 12.8493 12.0417 13.1367 12.0417C13.5221 12.0417 13.8917 12.1948 14.1642 12.4673C14.4367 12.7398 14.5898 13.1094 14.5898 13.4948ZM7.80859 12.0417C7.52119 12.0417 7.24025 12.1269 7.00128 12.2866C6.76232 12.4463 6.57606 12.6732 6.46608 12.9387C6.3561 13.2043 6.32732 13.4964 6.38339 13.7783C6.43946 14.0602 6.57786 14.3191 6.78108 14.5223C6.9843 14.7256 7.24322 14.864 7.5251 14.92C7.80698 14.9761 8.09916 14.9473 8.36468 14.8373C8.6302 14.7274 8.85715 14.5411 9.01682 14.3021C9.17649 14.0632 9.26172 13.7822 9.26172 13.4948C9.26172 13.1094 9.10862 12.7398 8.83611 12.4673C8.56359 12.1948 8.19399 12.0417 7.80859 12.0417ZM18.4648 12.0417C18.1774 12.0417 17.8965 12.1269 17.6575 12.2866C17.4186 12.4463 17.2323 12.6732 17.1223 12.9387C17.0123 13.2043 16.9836 13.4964 17.0396 13.7783C17.0957 14.0602 17.2341 14.3191 17.4373 14.5223C17.6406 14.7256 17.8995 14.864 18.1814 14.92C18.4632 14.9761 18.7554 14.9473 19.0209 14.8373C19.2865 14.7274 19.5134 14.5411 19.6731 14.3021C19.8327 14.0632 19.918 13.7822 19.918 13.4948C19.918 13.1094 19.7649 12.7398 19.4924 12.4673C19.2198 12.1948 18.8502 12.0417 18.4648 12.0417ZM25.7305 13.4948C25.7309 15.6691 25.1685 17.8065 24.0978 19.6989C23.0272 21.5913 21.4849 23.1743 19.6209 24.2938C17.757 25.4132 15.635 26.0311 13.4614 26.0871C11.2879 26.1432 9.13682 25.6356 7.21766 24.6137L3.09441 25.9881C2.75303 26.1019 2.38669 26.1184 2.03645 26.0358C1.68621 25.9531 1.36591 25.7746 1.11144 25.5201C0.856983 25.2656 0.678418 24.9453 0.595763 24.5951C0.513108 24.2449 0.529629 23.8785 0.643476 23.5371L2.01789 19.4139C1.11955 17.7249 0.617801 15.8535 0.550716 13.9416C0.48363 12.0298 0.852975 10.1278 1.63072 8.38C2.40846 6.63221 3.57415 5.08457 5.03932 3.85455C6.50449 2.62454 8.23062 1.74447 10.0867 1.28117C11.9428 0.817861 13.88 0.783486 15.7513 1.18065C17.6227 1.57782 19.3789 2.39609 20.8868 3.57335C22.3947 4.75061 23.6146 6.25591 24.4538 7.97501C25.2931 9.69411 25.7297 11.5818 25.7305 13.4948ZM23.793 13.4948C23.7925 11.8602 23.416 10.2476 22.6926 8.7818C21.9692 7.31598 20.9182 6.03623 19.6211 5.04156C18.3239 4.0469 16.8153 3.36398 15.212 3.04564C13.6087 2.7273 11.9536 2.78208 10.3749 3.20574C8.79609 3.62939 7.33596 4.41057 6.10741 5.48883C4.87887 6.56709 3.91485 7.91353 3.28993 9.42398C2.66502 10.9344 2.39597 12.5684 2.50359 14.1995C2.61121 15.8305 3.09263 17.415 3.91059 18.8302C3.97924 18.949 4.02186 19.0811 4.03564 19.2176C4.04942 19.3541 4.03404 19.492 3.99051 19.6222L2.48047 24.1511L7.00937 22.641C7.10802 22.6074 7.21152 22.5902 7.31574 22.5902C7.48588 22.5905 7.65294 22.6356 7.80012 22.721C9.42011 23.6583 11.2584 24.1523 13.13 24.1535C15.0016 24.1547 16.8405 23.6629 18.4617 22.7277C20.0828 21.7925 21.4291 20.4467 22.365 18.8259C23.3009 17.2051 23.7934 15.3664 23.793 13.4948Z" fill="white"/>
</svg>
