<svg width="21" height="21" viewBox="0 0 21 21" fill="none" xmlns="http://www.w3.org/2000/svg">
<path d="M7.16518 18.0781L6.9913 18.0172L6.8195 18.0837L1.3945 20.1837L1.39449 20.1837L1.3893 20.1858C1.15655 20.2789 0.979488 20.2541 0.791722 20.1163C0.589126 19.9676 0.5 19.7912 0.5 19.5417V3.20833C0.5 3.05943 0.540554 2.94226 0.618949 2.83801C0.701462 2.72829 0.818052 2.63695 0.987956 2.56988L6.99755 0.528882L13.8348 2.92193L14.0087 2.98279L14.1805 2.91628L19.6055 0.816284L19.6055 0.816313L19.6107 0.814238C19.843 0.721324 20.0198 0.746057 20.2077 0.884433C20.4114 1.03446 20.5 1.21106 20.5 1.45833V17.7917C20.5 17.9412 20.4594 18.0587 20.3814 18.163C20.3003 18.2715 20.1842 18.3627 20.0126 18.4299L14.0025 20.4711L7.16518 18.0781ZM12.6682 18.6136L13.3333 18.8464V18.1417V4.49167V4.13693L12.9985 4.01974L8.33184 2.3864L7.66667 2.15359V2.85833V16.5083V16.8631L8.00149 16.9803L12.6682 18.6136ZM14.6667 18.1417V18.8354L15.3248 18.616L18.8248 17.4493L19.1667 17.3354V16.975V3.15V2.42286L18.4877 2.68313L14.9877 4.02479L14.6667 4.14786V4.49167V18.1417ZM1.83333 17.85V18.5771L2.5123 18.3169L6.0123 16.9752L6.33333 16.8521V16.5083V2.85833V2.16462L5.67522 2.38399L2.17522 3.55066L1.83333 3.66462V4.025V17.85Z" fill="white" stroke="#FCFCFC"/>
</svg>
