<svg width="25" height="25" viewBox="0 0 25 25" fill="none" xmlns="http://www.w3.org/2000/svg">
<path d="M15.9362 7.61111H15.9484M1.26953 5.16667C1.26953 4.19421 1.65584 3.26158 2.34347 2.57394C3.03111 1.88631 3.96374 1.5 4.9362 1.5H19.6029C20.5753 1.5 21.508 1.88631 22.1956 2.57394C22.8832 3.26158 23.2695 4.19421 23.2695 5.16667V19.8333C23.2695 20.8058 22.8832 21.7384 22.1956 22.4261C21.508 23.1137 20.5753 23.5 19.6029 23.5H4.9362C3.96374 23.5 3.03111 23.1137 2.34347 22.4261C1.65584 21.7384 1.26953 20.8058 1.26953 19.8333V5.16667Z" stroke="white" stroke-width="2" stroke-linecap="round" stroke-linejoin="round"/>
<path d="M1.26953 17.3906L7.38064 11.2795C8.51486 10.1881 9.91309 10.1881 11.0473 11.2795L17.1584 17.3906" stroke="white" stroke-width="2" stroke-linecap="round" stroke-linejoin="round"/>
<path d="M14.7148 14.9471L15.9371 13.7248C17.0713 12.6334 18.4695 12.6334 19.6037 13.7248L23.2704 17.3915" stroke="white" stroke-width="2" stroke-linecap="round" stroke-linejoin="round"/>
</svg>
