<svg width="31" height="31" viewBox="0 0 31 31" fill="none" xmlns="http://www.w3.org/2000/svg">
<path d="M13.6121 12.4157C13.5719 12.295 13.5558 12.1676 13.5648 12.0407C13.5739 11.9138 13.6078 11.7899 13.6647 11.6761C13.7216 11.5623 13.8003 11.4608 13.8965 11.3775C13.9926 11.2941 14.1042 11.2305 14.2249 11.1903L15.678 10.7059C15.8236 10.6574 15.9787 10.6441 16.1305 10.6673C16.2822 10.6904 16.4263 10.7493 16.5508 10.8391C16.6754 10.9288 16.7768 11.0469 16.8467 11.1835C16.9167 11.3202 16.9531 11.4715 16.9531 11.625V16.4688C16.9531 16.7257 16.8511 16.9721 16.6694 17.1538C16.4877 17.3354 16.2413 17.4375 15.9844 17.4375C15.7274 17.4375 15.481 17.3354 15.2994 17.1538C15.1177 16.9721 15.0156 16.7257 15.0156 16.4688V12.9691L14.8376 13.0285C14.7169 13.0687 14.5895 13.0848 14.4626 13.0758C14.3357 13.0668 14.2118 13.0328 14.098 12.9759C13.9842 12.919 13.8827 12.8403 13.7993 12.7442C13.716 12.648 13.6524 12.5364 13.6121 12.4157ZM30.0312 25.1875C30.0312 25.4444 29.9292 25.6908 29.7475 25.8725C29.5658 26.0542 29.3194 26.1562 29.0625 26.1562H1.9375C1.68057 26.1562 1.43417 26.0542 1.25249 25.8725C1.07081 25.6908 0.96875 25.4444 0.96875 25.1875C0.96875 24.9306 1.07081 24.6842 1.25249 24.5025C1.43417 24.3208 1.68057 24.2188 1.9375 24.2188H2.90625V12.5938C2.90625 12.0799 3.11038 11.5871 3.47373 11.2237C3.83708 10.8604 4.32989 10.6562 4.84375 10.6562H9.6875V6.78125C9.6875 6.26739 9.89163 5.77458 10.255 5.41123C10.6183 5.04788 11.1111 4.84375 11.625 4.84375H19.375C19.8889 4.84375 20.3817 5.04788 20.745 5.41123C21.1084 5.77458 21.3125 6.26739 21.3125 6.78125V15.5H26.1562C26.6701 15.5 27.1629 15.7041 27.5263 16.0675C27.8896 16.4308 28.0938 16.9236 28.0938 17.4375V24.2188H29.0625C29.3194 24.2188 29.5658 24.3208 29.7475 24.5025C29.9292 24.6842 30.0312 24.9306 30.0312 25.1875ZM21.3125 17.4375V24.2188H26.1562V17.4375H21.3125ZM11.625 24.2188H19.375V6.78125H11.625V24.2188ZM4.84375 24.2188H9.6875V12.5938H4.84375V24.2188Z" fill="white"/>
</svg>
