<svg width="10" height="14" viewBox="0 0 10 14" fill="none" xmlns="http://www.w3.org/2000/svg">
<path d="M5 1.99862V0.879865C5 0.598615 4.6625 0.461115 4.46875 0.661115L2.71875 2.40487C2.59375 2.52987 2.59375 2.72362 2.71875 2.84862L4.4625 4.59237C4.6625 4.78612 5 4.64862 5 4.36737V3.24862C7.06875 3.24862 8.75 4.92987 8.75 6.99862C8.75 7.49237 8.65625 7.97362 8.475 8.40487C8.38125 8.62987 8.45 8.88612 8.61875 9.05487C8.9375 9.37362 9.475 9.26112 9.64375 8.84237C9.875 8.27362 10 7.64862 10 6.99862C10 4.23612 7.7625 1.99862 5 1.99862ZM5 10.7486C2.93125 10.7486 1.25 9.06737 1.25 6.99862C1.25 6.50487 1.34375 6.02362 1.525 5.59237C1.61875 5.36737 1.55 5.11112 1.38125 4.94237C1.0625 4.62362 0.525 4.73612 0.35625 5.15487C0.125 5.72362 0 6.34862 0 6.99862C0 9.76112 2.2375 11.9986 5 11.9986V13.1174C5 13.3986 5.3375 13.5361 5.53125 13.3361L7.275 11.5924C7.4 11.4674 7.4 11.2736 7.275 11.1486L5.53125 9.40487C5.48719 9.36168 5.43133 9.3325 5.37071 9.321C5.3101 9.30951 5.24743 9.31621 5.19062 9.34027C5.13381 9.36434 5.08539 9.40468 5.05147 9.45621C5.01755 9.50775 4.99964 9.56817 5 9.62986V10.7486Z" fill="#ACACAC"/>
</svg>
